<svg width="1309" height="359" viewBox="0 0 1309 359" fill="none" xmlns="http://www.w3.org/2000/svg">
<path d="M-230.455 23.2681C-230.455 23.2681 -228.129 55.5895 -221.273 62.4201C-214.416 69.2507 -181.972 71.5677 -181.972 71.5677C-181.972 71.5677 -214.416 73.8848 -221.273 80.7154C-228.129 87.546 -230.455 119.867 -230.455 119.867C-230.455 119.867 -232.781 87.546 -239.637 80.7154C-246.494 73.8848 -278.57 71.5677 -278.57 71.5677C-278.57 71.5677 -246.494 69.2507 -239.637 62.4201C-232.781 55.5895 -230.455 23.2681 -230.455 23.2681Z" fill="#191919"/>
<path d="M-148.707 0C-148.707 0 -141.373 101.919 -119.753 123.457C-98.1324 144.996 4.17163 152.303 4.17163 152.303C4.17163 152.303 -88.9097 150.421 -119.753 181.148C-150.596 211.875 -143.419 363.481 -148.707 358.898C-153.995 354.315 -143.192 210.826 -177.661 181.148C-212.13 151.469 -300.427 152.303 -300.427 152.303C-300.427 152.303 -199.282 144.996 -177.661 123.457C-156.041 101.919 -148.707 0 -148.707 0Z" fill="#191919"/>
<path d="M191.228 261.127V128.309L188.614 107.393L309.925 107.393C324.044 107.393 334.85 109.136 342.345 112.622C350.014 116.108 355.33 121.337 358.293 128.309C361.256 135.107 362.738 143.648 362.738 153.932V214.327C362.738 224.785 361.256 233.5 358.293 240.472C355.504 247.27 350.276 252.412 342.606 255.898C335.112 259.384 324.218 261.127 309.925 261.127H191.228ZM225.739 236.028L307.834 236.028C321.255 236.028 328.052 229.84 328.227 217.465V150.794C328.227 145.739 326.745 141.469 323.782 137.983C320.819 134.323 315.503 132.492 307.834 132.492L225.739 132.492V236.028Z" fill="#191919"/>
<path d="M433.502 261.127C427.053 261.127 422.347 259.82 419.384 257.205C416.421 254.591 414.94 250.233 414.94 244.133C414.94 237.858 416.334 233.5 419.123 231.06C422.086 228.446 426.879 227.138 433.502 227.138C440.126 227.138 444.919 228.446 447.882 231.06C450.845 233.5 452.327 237.858 452.327 244.133C452.327 250.059 450.845 254.417 447.882 257.205C444.919 259.82 440.126 261.127 433.502 261.127Z" fill="#191919"/>
<path d="M488.86 261.127L565.464 107.393H616.969L693.312 261.127H653.049L637.623 227.923L544.025 227.923L527.031 261.127L488.86 261.127ZM553.437 202.3L627.95 202.3L592.131 130.924H589.517L553.437 202.3Z" fill="#191919"/>
<path d="M748.536 261.127C742.087 261.127 737.381 259.82 734.418 257.205C731.455 254.591 729.974 250.233 729.974 244.133C729.974 237.858 731.368 233.5 734.157 231.06C737.12 228.446 741.913 227.138 748.536 227.138C755.16 227.138 759.953 228.446 762.916 231.06C765.879 233.5 767.36 237.858 767.36 244.133C767.36 250.059 765.879 254.417 762.916 257.205C759.953 259.82 755.16 261.127 748.536 261.127Z" fill="#191919"/>
<path d="M803.894 261.127L880.498 107.393L932.003 107.393L1008.35 261.127H968.083L952.657 227.923H859.059L842.065 261.127H803.894ZM868.471 202.3H942.984L907.166 130.924H904.551L868.471 202.3Z" fill="#191919"/>
<path d="M1063.57 261.127C1057.12 261.127 1052.42 259.82 1049.45 257.205C1046.49 254.591 1045.01 250.233 1045.01 244.133C1045.01 237.858 1046.4 233.5 1049.19 231.06C1052.15 228.446 1056.95 227.138 1063.57 227.138C1070.19 227.138 1074.99 228.446 1077.95 231.06C1080.91 233.5 1082.39 237.858 1082.39 244.133C1082.39 250.059 1080.91 254.417 1077.95 257.205C1074.99 259.82 1070.19 261.127 1063.57 261.127Z" fill="#191919"/>
<path d="M1185.07 261.127C1172.87 261.127 1163.29 259.384 1156.31 255.898C1149.34 252.412 1144.38 247.183 1141.41 240.211C1138.62 233.239 1137.23 224.611 1137.23 214.327V153.932C1137.23 143.822 1138.62 135.368 1141.41 128.571C1144.2 121.599 1149.08 116.37 1156.05 112.884C1163.03 109.223 1172.7 107.393 1185.07 107.393H1261.42C1273.62 107.393 1283.12 109.223 1289.91 112.884C1296.89 116.37 1301.77 121.599 1304.56 128.571C1307.52 135.368 1309 143.822 1309 153.932V214.327C1309 229.666 1305.6 241.344 1298.8 249.362C1292.01 257.205 1279.54 261.127 1261.42 261.127L1185.07 261.127ZM1192.66 236.028H1254.1C1260.55 236.028 1265.51 234.372 1269 231.06C1272.66 227.748 1274.49 223.217 1274.49 217.465V150.794C1274.49 145.739 1272.66 141.469 1269 137.983C1265.34 134.323 1260.37 132.492 1254.1 132.492H1192.66C1186.38 132.492 1181.33 134.148 1177.49 137.46C1173.66 140.772 1171.74 145.216 1171.74 150.794V217.465C1171.74 223.391 1173.57 228.01 1177.23 231.322C1181.07 234.459 1186.21 236.028 1192.66 236.028Z" fill="#191919"/>
</svg>
