<svg width="401" height="336" viewBox="0 0 401 336" fill="none" xmlns="http://www.w3.org/2000/svg">
<path d="M335.974 167.567C335.974 259.939 260.946 334.823 168.392 334.823C75.8391 334.823 0.810912 259.939 0.810912 167.567C0.810912 75.1945 75.8391 0.310912 168.392 0.310912C260.946 0.310912 335.974 75.1945 335.974 167.567Z" stroke="#DEDEDE" stroke-width="0.621824"/>
<path d="M171.504 23.8937C188.397 18.6185 232.629 14.088 274.416 38.168" stroke="#DEDEDE" stroke-width="0.621824"/>
<path d="M164.038 24.5142C146.005 20.1699 98.2494 18.7425 51.4883 47.7874" stroke="#DEDEDE" stroke-width="0.621824"/>
<path d="M168.391 22.9632C172.122 15.9295 182.444 1.92426 193.885 2.17251" stroke="#DEDEDE" stroke-width="0.621824"/>
<path d="M165.28 22.9629C157.507 16.0327 139.225 2.79284 128.281 5.27531" stroke="#DEDEDE" stroke-width="0.621824"/>
<path d="M170.57 22.963C183.318 16.2396 212.606 4.46853 227.778 11.1712" stroke="#DEDEDE" stroke-width="0.621824"/>
<path d="M164.348 23.894C149.32 18.1015 114.664 8.56469 96.2578 16.7568" stroke="#DEDEDE" stroke-width="0.621824"/>
<path d="M166.53 22.9631C166.219 16.4466 164.353 2.91713 159.379 0.931152" stroke="#DEDEDE" stroke-width="0.621824"/>
<path d="M172.434 26.0658C199.794 23.7902 266.516 32.6443 314.52 86.2657" stroke="#DEDEDE" stroke-width="0.621824"/>
<path d="M164.045 25.7561C120.931 26.9973 28.3626 52.1944 2.99219 143.053" stroke="#DEDEDE" stroke-width="0.621824"/>
<path d="M164.659 25.4453C99.1603 47.1669 -19.4008 124.31 30.3451 259.108" stroke="#DEDEDE" stroke-width="0.621824"/>
<path d="M164.971 27.9278C113.567 66.0958 26.1797 176.566 87.8646 313.102" stroke="#DEDEDE" stroke-width="0.621824"/>
<path d="M167.462 28.5481C135.127 84.1968 83.1428 222.553 133.884 330.789" stroke="#DEDEDE" stroke-width="0.621824"/>
<path d="M169.012 29.1688C175.437 115.124 185.739 296.593 175.541 334.823" stroke="#DEDEDE" stroke-width="0.621824"/>
<path d="M170.883 27.9278C214.41 90.4034 283.619 238.131 212.234 329.238" stroke="#DEDEDE" stroke-width="0.621824"/>
<path d="M171.504 27.3075C236.899 72.0955 347.418 190.096 266.332 303.793" stroke="#DEDEDE" stroke-width="0.621824"/>
<path d="M173.055 26.066C232.439 36.72 344.74 94.4581 318.872 240.179" stroke="#DEDEDE" stroke-width="0.621824"/>
<ellipse cx="168.082" cy="25.4452" rx="4.66368" ry="2.48247" fill="#75BFEF"/>
<path d="M164.66 10.5509L151.291 12.4128L141.653 16.7571L135.745 22.0324L134.812 29.4798L139.165 35.686L149.425 40.9612L159.685 43.1334H170.256L180.827 42.2025L188.911 39.72L197.617 32.5829L199.171 26.687L196.062 20.1705L188.911 14.8953L177.097 11.4819L164.66 10.5509Z" stroke="#DEDEDE" stroke-width="0.621824"/>
<path d="M137.921 6.20683L119.267 13.6542L105.897 25.446L103.41 38.1687L110.872 51.2016L128.905 61.7522L148.492 66.7171L172.122 67.9583L193.886 65.1656L211.297 58.9594L228.397 44.9955L230.573 33.514L224.044 21.1017L207.566 9.93054L185.802 4.03466L161.551 2.79343L137.921 6.20683Z" stroke="#DEDEDE" stroke-width="0.621824"/>
<path d="M96.8802 16.7566L78.2254 34.1339L74.1836 52.1318L83.8219 70.1297L109.938 86.5761L137.61 94.3338L173.675 96.506L207.254 91.8514L233.37 81.9215L255.756 62.6823L259.798 44.9947L250.471 27.3071L243.32 17.6875" stroke="#DEDEDE" stroke-width="0.621824"/>
<path d="M52.1075 47.4771L48.6875 70.4399L60.1912 92.7822L92.837 114.504L127.97 123.813L175.229 126.916L219.378 120.4L255.444 109.849L280.006 84.7141L285.291 60.8204L274.41 37.8575" stroke="#DEDEDE" stroke-width="0.621824"/>
<path d="M33.7683 67.9579L28.1719 92.162L40.6084 118.228L79.7832 143.673L120.202 155.465L176.477 159.809L229.954 150.5L273.17 138.398L307.993 125.365L327.269 114.815" stroke="#DEDEDE" stroke-width="0.621824"/>
<path d="M16.3544 96.5067L12.3125 118.849L27.2363 146.777L71.0748 175.015L114.913 187.738L178.339 191.151L238.035 184.014L285.915 168.188L317.939 154.845L334.106 140.26" stroke="#DEDEDE" stroke-width="0.621824"/>
<path d="M2.05469 144.294L19.4658 177.807L67.0353 207.286L112.739 219.699L178.964 224.043L242.079 214.734L292.446 193.943L320.428 169.429L335.352 152.672" stroke="#DEDEDE" stroke-width="0.621824"/>
<path d="M0.8125 178.428L19.4672 209.148L66.7258 236.456L113.052 249.489L179.898 253.523L242.702 244.524L294.624 224.043L322.606 198.908L335.665 180.29" stroke="#DEDEDE" stroke-width="0.621824"/>
<path d="M6.09375 210.079L23.5048 237.387L71.6962 263.142L116.778 275.244L179.893 279.278L238.967 272.141L291.822 251.04L321.98 223.423L329.442 215.044" stroke="#DEDEDE" stroke-width="0.621824"/>
<path d="M27.8633 259.418L77.2983 286.726L121.759 299.138L178.966 301.62L231.821 294.483L283.122 275.555L315.457 248.558" stroke="#DEDEDE" stroke-width="0.621824"/>
<path d="M48.6875 284.553L83.8205 304.723L127.659 315.274L177.716 318.377L224.042 312.481L271.611 295.414L299.282 272.451" stroke="#DEDEDE" stroke-width="0.621824"/>
<path d="M87.5586 313.412L132.019 327.376L176.479 329.238L215.965 323.963L260.737 307.516" stroke="#DEDEDE" stroke-width="0.621824"/>
<g filter="url(#filter0_f_1115_4154)">
<path d="M270.992 73.2332L215.339 125.365C197.43 151.183 217.411 180.807 229.641 192.392C258.245 203.066 306.85 171.187 327.578 153.914L322.914 80.06L270.992 73.2332Z" fill="#1E1B1B"/>
</g>
<g filter="url(#filter1_f_1115_4154)">
<path d="M347.555 95.3653C336.456 76.4359 299.766 80.6286 282.809 85.0911L297.013 158.878L342.27 135.528C357.069 127.309 352.849 104.394 347.555 95.3653Z" fill="#222020"/>
</g>
<path d="M295.555 94.3347L320.117 85.3358C330.066 103.747 349.591 141.253 348.099 143.984L303.638 159.189" stroke="#DEDEDE" stroke-width="0.621824"/>
<path d="M319.491 85.6458L284.047 99.92C286.783 103.892 295.758 143.363 299.903 162.602L348.095 143.984L377.942 116.677L363.329 89.6798L341.876 64.5447L319.491 85.6458Z" fill="url(#paint0_linear_1115_4154)"/>
<path d="M341.876 64.5447L319.491 85.6458L284.047 99.92C286.783 103.892 295.758 143.363 299.903 162.602L348.095 143.984L377.942 116.677L363.329 89.6798L341.876 64.5447ZM341.876 64.5447L287.467 82.853" stroke="#DEDEDE" stroke-width="0.621824"/>
<path d="M348.014 93.7134L363.019 88.7484L343.121 108.608" stroke="#DEDEDE" stroke-width="0.621824"/>
<path d="M351.828 125.986L377.945 116.676" stroke="#DEDEDE" stroke-width="0.621824"/>
<ellipse cx="3.80467" cy="7.13932" rx="3.80467" ry="7.13932" transform="matrix(0.91702 0.398842 -0.400145 0.916452 322.719 100.541)" fill="#999998" fill-opacity="0.73"/>
<ellipse cx="3.80411" cy="7.14037" rx="3.80411" ry="7.14037" transform="matrix(0.875165 -0.483824 0.485263 0.874368 330.688 104.222)" fill="#999998" fill-opacity="0.73"/>
<ellipse cx="3.79855" cy="7.15082" rx="3.79855" ry="7.15082" transform="matrix(-0.106325 -0.994331 0.994375 -0.105918 324.031 125.745)" fill="#999998" fill-opacity="0.73"/>
<path d="M368.93 132.192C371.811 126.785 363.955 76.6463 332.242 70.7505" stroke="#CDF462" stroke-width="1.86547"/>
<path d="M298.043 132.192C301.774 137.053 322.792 144.79 369.553 133.123" stroke="#3CEAAA" stroke-width="1.86547"/>
<path d="M327.578 71.3706C321.493 72.1592 298.352 85.0242 298.352 130.019" stroke="#A88DE1" stroke-width="1.86547"/>
<path d="M329.441 49.6495L329.441 113.573" stroke="#3CEAAA" stroke-width="1.86547"/>
<g filter="url(#filter2_f_1115_4154)">
<path d="M328.582 43.0604C328.971 41.9517 330.539 41.9517 330.928 43.0604L335.094 54.9199C335.415 55.8347 334.985 56.8539 334.079 57.1993C330.889 58.4151 328.594 58.47 325.39 57.2099C324.501 56.8602 324.088 55.8533 324.405 54.9518L328.582 43.0604Z" fill="#3CEAAA"/>
</g>
<ellipse cx="329.753" cy="69.1991" rx="4.04185" ry="4.03402" fill="#3CEAAA"/>
<path d="M387.863 140.065L329.518 113.697" stroke="#A88DE1" stroke-width="1.86547"/>
<g filter="url(#filter3_f_1115_4154)">
<path d="M394.228 141.994C395.079 142.805 394.43 144.235 393.258 144.132L380.716 143.027C379.751 142.942 379.001 142.133 379.06 141.167C379.266 137.763 380.163 135.654 382.636 133.259C383.322 132.595 384.407 132.634 385.098 133.292L394.228 141.994Z" fill="#A88DE1"/>
</g>
<ellipse cx="4.03535" cy="4.04052" rx="4.03535" ry="4.04052" transform="matrix(-0.413162 0.910657 -0.911259 -0.411834 375.242 130.273)" fill="#A88DE1"/>
<path d="M389.098 92.4092L328.857 114.12" stroke="#CDF462" stroke-width="1.86547"/>
<ellipse cx="4.03492" cy="4.04095" rx="4.03492" ry="4.04095" transform="matrix(0.340222 0.940345 -0.940766 0.339056 373.211 94.177)" fill="#CDF462"/>
<g filter="url(#filter4_f_1115_4154)">
<ellipse cx="6.3689" cy="6.37842" rx="6.3689" ry="6.37842" transform="matrix(0.340222 0.940345 -0.940766 0.339056 396.164 82.5421)" fill="#CDF462"/>
</g>
<path d="M282.707 141.221L329.443 114.194" stroke="#CDF462" stroke-width="1.86547"/>
<g filter="url(#filter5_f_1115_4154)">
<path d="M277.355 145.159C276.194 145.355 275.434 143.981 276.218 143.105L284.605 133.733C285.251 133.012 286.349 132.896 287.09 133.52C289.7 135.72 290.858 137.699 291.302 141.11C291.425 142.055 290.744 142.901 289.803 143.059L277.355 145.159Z" fill="#CDF462"/>
</g>
<ellipse cx="4.03585" cy="4.04002" rx="4.03585" ry="4.04002" transform="matrix(-0.484168 -0.874975 0.875769 -0.48273 298.121 136.979)" fill="#CDF462"/>
<defs>
<filter id="filter0_f_1115_4154" x="167.536" y="32.5659" width="200.71" height="202.632" filterUnits="userSpaceOnUse" color-interpolation-filters="sRGB">
<feFlood flood-opacity="0" result="BackgroundImageFix"/>
<feBlend mode="normal" in="SourceGraphic" in2="BackgroundImageFix" result="shape"/>
<feGaussianBlur stdDeviation="20.3336" result="effect1_foregroundBlur_1115_4154"/>
</filter>
<filter id="filter1_f_1115_4154" x="280.321" y="78.8138" width="74.6191" height="82.5519" filterUnits="userSpaceOnUse" color-interpolation-filters="sRGB">
<feFlood flood-opacity="0" result="BackgroundImageFix"/>
<feBlend mode="normal" in="SourceGraphic" in2="BackgroundImageFix" result="shape"/>
<feGaussianBlur stdDeviation="1.24365" result="effect1_foregroundBlur_1115_4154"/>
</filter>
<filter id="filter2_f_1115_4154" x="323.366" y="41.2961" width="12.7668" height="17.7698" filterUnits="userSpaceOnUse" color-interpolation-filters="sRGB">
<feFlood flood-opacity="0" result="BackgroundImageFix"/>
<feBlend mode="normal" in="SourceGraphic" in2="BackgroundImageFix" result="shape"/>
<feGaussianBlur stdDeviation="0.466368" result="effect1_foregroundBlur_1115_4154"/>
</filter>
<filter id="filter3_f_1115_4154" x="378.124" y="131.847" width="17.425" height="13.2231" filterUnits="userSpaceOnUse" color-interpolation-filters="sRGB">
<feFlood flood-opacity="0" result="BackgroundImageFix"/>
<feBlend mode="normal" in="SourceGraphic" in2="BackgroundImageFix" result="shape"/>
<feGaussianBlur stdDeviation="0.466368" result="effect1_foregroundBlur_1115_4154"/>
</filter>
<filter id="filter4_f_1115_4154" x="385.016" y="83.3918" width="14.6291" height="14.6039" filterUnits="userSpaceOnUse" color-interpolation-filters="sRGB">
<feFlood flood-opacity="0" result="BackgroundImageFix"/>
<feBlend mode="normal" in="SourceGraphic" in2="BackgroundImageFix" result="shape"/>
<feGaussianBlur stdDeviation="0.466368" result="effect1_foregroundBlur_1115_4154"/>
</filter>
<filter id="filter5_f_1115_4154" x="274.965" y="132.182" width="17.2844" height="13.9287" filterUnits="userSpaceOnUse" color-interpolation-filters="sRGB">
<feFlood flood-opacity="0" result="BackgroundImageFix"/>
<feBlend mode="normal" in="SourceGraphic" in2="BackgroundImageFix" result="shape"/>
<feGaussianBlur stdDeviation="0.466368" result="effect1_foregroundBlur_1115_4154"/>
</filter>
<linearGradient id="paint0_linear_1115_4154" x1="377.942" y1="-1.24078" x2="255.764" y2="175.237" gradientUnits="userSpaceOnUse">
<stop stop-color="#6C6448"/>
<stop offset="1" stop-color="#312D20" stop-opacity="0.49"/>
</linearGradient>
</defs>
</svg>
