<svg width="180" height="40" viewBox="0 0 180 40" fill="none" xmlns="http://www.w3.org/2000/svg">
<path d="M14.566 3.21134C14.566 3.21134 14.816 6.68461 15.5528 7.41863C16.2896 8.15265 19.7761 8.40164 19.7761 8.40164C19.7761 8.40164 16.2896 8.65063 15.5528 9.38465C14.816 10.1187 14.566 13.5919 14.566 13.5919C14.566 13.5919 14.3161 10.1187 13.5793 9.38465C12.8425 8.65063 9.39548 8.40164 9.39548 8.40164C9.39548 8.40164 12.8425 8.15265 13.5793 7.41863C14.3161 6.68461 14.566 3.21134 14.566 3.21134Z" fill="#F2F2F2"/>
<path d="M23.3509 0.710938C23.3509 0.710938 24.139 11.6632 26.4624 13.9777C28.7858 16.2923 39.7796 17.0775 39.7796 17.0775C39.7796 17.0775 29.7769 16.8753 26.4624 20.1772C23.1479 23.4791 23.9192 39.7708 23.3509 39.2783C22.7826 38.7858 23.9435 23.3664 20.2394 20.1772C16.5353 16.9879 7.04661 17.0775 7.04661 17.0775C7.04661 17.0775 17.916 16.2923 20.2394 13.9777C22.5628 11.6632 23.3509 0.710938 23.3509 0.710938Z" fill="#F2F2F2"/>
<path d="M59.8812 28.7718V14.4991L59.6003 12.2514H72.6368C74.1539 12.2514 75.3152 12.4387 76.1207 12.8134C76.9448 13.188 77.5161 13.7499 77.8345 14.4991C78.1529 15.2296 78.3121 16.1474 78.3121 17.2525V23.7426C78.3121 24.8665 78.1529 25.803 77.8345 26.5522C77.5348 27.2827 76.9729 27.8353 76.1487 28.2099C75.3433 28.5845 74.1727 28.7718 72.6368 28.7718H59.8812ZM63.5899 26.0746H72.412C73.8543 26.0746 74.5847 25.4097 74.6035 24.0798V16.9154C74.6035 16.3722 74.4443 15.9133 74.1258 15.5387C73.8074 15.1453 73.2361 14.9486 72.412 14.9486H63.5899V26.0746Z" fill="#F2F2F2"/>
<path d="M85.9167 28.7718C85.2236 28.7718 84.7179 28.6313 84.3995 28.3504C84.0811 28.0694 83.9219 27.6011 83.9219 26.9456C83.9219 26.2713 84.0717 25.803 84.3714 25.5408C84.6898 25.2598 85.2049 25.1193 85.9167 25.1193C86.6284 25.1193 87.1435 25.2598 87.4619 25.5408C87.7804 25.803 87.9396 26.2713 87.9396 26.9456C87.9396 27.5824 87.7804 28.0507 87.4619 28.3504C87.1435 28.6313 86.6284 28.7718 85.9167 28.7718Z" fill="#F2F2F2"/>
<path d="M91.8655 28.7718L100.098 12.2514H105.632L113.836 28.7718H109.51L107.852 25.2036H97.7937L95.9675 28.7718H91.8655ZM98.8052 22.4502H106.813L102.963 14.7801H102.682L98.8052 22.4502Z" fill="#F2F2F2"/>
<path d="M119.771 28.7718C119.078 28.7718 118.572 28.6313 118.254 28.3504C117.935 28.0694 117.776 27.6011 117.776 26.9456C117.776 26.2713 117.926 25.803 118.226 25.5408C118.544 25.2598 119.059 25.1193 119.771 25.1193C120.483 25.1193 120.998 25.2598 121.316 25.5408C121.635 25.803 121.794 26.2713 121.794 26.9456C121.794 27.5824 121.635 28.0507 121.316 28.3504C120.998 28.6313 120.483 28.7718 119.771 28.7718Z" fill="#F2F2F2"/>
<path d="M125.72 28.7718L133.952 12.2514H139.487L147.691 28.7718H143.364L141.706 25.2036H131.648L129.822 28.7718H125.72ZM132.66 22.4502H140.667L136.818 14.7801H136.537L132.66 22.4502Z" fill="#F2F2F2"/>
<path d="M153.625 28.7718C152.932 28.7718 152.427 28.6313 152.108 28.3504C151.79 28.0694 151.631 27.6011 151.631 26.9456C151.631 26.2713 151.781 25.803 152.08 25.5408C152.399 25.2598 152.914 25.1193 153.625 25.1193C154.337 25.1193 154.852 25.2598 155.171 25.5408C155.489 25.803 155.648 26.2713 155.648 26.9456C155.648 27.5824 155.489 28.0507 155.171 28.3504C154.852 28.6313 154.337 28.7718 153.625 28.7718Z" fill="#F2F2F2"/>
<path d="M166.683 28.7718C165.371 28.7718 164.341 28.5845 163.592 28.2099C162.843 27.8353 162.309 27.2734 161.991 26.5241C161.691 25.7749 161.541 24.8477 161.541 23.7426V17.2525C161.541 16.1661 161.691 15.2577 161.991 14.5272C162.29 13.778 162.815 13.2161 163.564 12.8415C164.313 12.4481 165.353 12.2514 166.683 12.2514H174.887C176.198 12.2514 177.219 12.4481 177.949 12.8415C178.698 13.2161 179.223 13.778 179.522 14.5272C179.841 15.2577 180 16.1661 180 17.2525V23.7426C180 25.3909 179.635 26.6459 178.904 27.5075C178.174 28.3504 176.835 28.7718 174.887 28.7718H166.683ZM167.497 26.0746H174.1C174.793 26.0746 175.327 25.8967 175.701 25.5408C176.095 25.1849 176.291 24.6979 176.291 24.0798V16.9154C176.291 16.3722 176.095 15.9133 175.701 15.5387C175.308 15.1453 174.774 14.9486 174.1 14.9486H167.497C166.823 14.9486 166.28 15.1266 165.868 15.4825C165.456 15.8383 165.25 16.316 165.25 16.9154V24.0798C165.25 24.7166 165.446 25.213 165.84 25.5689C166.252 25.906 166.804 26.0746 167.497 26.0746Z" fill="#F2F2F2"/>
</svg>
