  <svg
      role="img"
      xmlns="http://www.w3.org/2000/svg"
      width={24}
      height={24}
      fill="currentColor"
      viewBox="0 0 200 200"
    >
      <title>DexScreener</title>
      <path d="M0 0 C66 0 132 0 200 0 C200 66 200 132 200 200 C134 200 68 200 0 200 C0 134 0 68 0 0 Z " fill="transparent" transform="translate(0,0)" />
      <path d="M0 0 C0.66 0 1.32 0 2 0 C3.77792461 2.04712784 5.42930397 4.09242561 7.0625 6.25 C7.52205078 6.83652344 7.98160156 7.42304687 8.45507812 8.02734375 C10.70819805 10.97194982 12.37869403 13.33345892 13 17 C12.44140625 19.078125 12.44140625 19.078125 11.5625 21.25 C8.91114193 28.77445599 9.52068338 34.44463865 12.671875 41.66796875 C16.10396441 47.69431399 21.54742992 50.81268811 28 53 C31.31711244 53.7733444 34.64299198 54.42586382 38 55 C39.17461636 59.03822357 39.42121405 62.00346546 38 66 C33.75843037 69.92072271 28.31039997 72.37334167 23.17138672 74.90966797 C20.03878501 76.48266091 17.0277553 78.23481464 14 80 C17.37991315 82.92050748 20.79005863 85.04535344 24.72241211 87.09179688 C45.23513098 97.84533995 52.36572453 117.83024578 59.07568359 138.97900391 C66 161.61014263 66 161.61014263 66 165 C36.3 165 6.6 165 -24 165 C-23.35861782 160.51032474 -22.75201846 156.72467922 -21.546875 152.45703125 C-17.81579755 138.74014248 -15.03210576 125.20225906 -13.125 111.125 C-13.02199585 110.37272125 -12.9189917 109.6204425 -12.81286621 108.84536743 C-10.17069629 89.31866419 -9.74209066 69.96338946 -9.52319336 50.27758789 C-9.48323103 46.83723838 -9.43179436 43.39720311 -9.37890625 39.95703125 C-9.3704921 38.92028763 -9.36207794 37.88354401 -9.35340881 36.81538391 C-9.19773682 27.50742336 -8.01635036 18.73544952 -4.5 10.0625 C-4.0771875 9.00160156 -3.654375 7.94070312 -3.21875 6.84765625 C-2.22013684 4.5143582 -1.17119484 2.2502123 0 0 Z " fill="currentColor" transform="translate(32,35)" />
      <path d="M0 0 C3 1 3 1 4.31640625 3.51171875 C4.72761719 4.55972656 5.13882813 5.60773437 5.5625 6.6875 C5.97628906 7.72261719 6.39007813 8.75773437 6.81640625 9.82421875 C7.20699219 10.87222656 7.59757812 11.92023437 8 13 C8.35964844 13.95519531 8.71929687 14.91039062 9.08984375 15.89453125 C11.29226896 23.40924386 11.14706814 31.07111334 11.17578125 38.8359375 C11.19561818 41.18718527 11.21674559 43.53842243 11.23901367 45.88964844 C11.25016205 47.11228394 11.26131042 48.33491943 11.27279663 49.59460449 C11.66071797 86.53091828 14.99350658 121.660543 25.3359375 157.3125 C26 160 26 160 26 164 C-3.7 164 -33.4 164 -64 164 C-48.31921261 101.27685044 -48.31921261 101.27685044 -27.83056641 88.66455078 C-25.4450538 87.3062782 -23.04214564 85.98859514 -20.625 84.6875 C-19.79355469 84.23310547 -18.96210938 83.77871094 -18.10546875 83.31054688 C-16.07343975 82.20110576 -14.0383402 81.09778906 -12 80 C-14.93847404 77.37209639 -17.84600287 75.50651093 -21.390625 73.84375 C-34.28127562 67.70646851 -34.28127562 67.70646851 -36.3984375 62.6796875 C-36.60679816 59.64049581 -36.54500348 56.99237758 -36 54 C-35.18208984 53.85304688 -35.18208984 53.85304688 -34.34765625 53.703125 C-25.89769665 52.02757746 -18.07624177 49.35885767 -12 43 C-8.17336107 36.99181925 -7.00268897 31.0378426 -8 24 C-8.68529398 21.73836832 -8.68529398 21.73836832 -9.5625 19.625 C-11.32834568 15.17199786 -11.32834568 15.17199786 -10 12 C-8.36019203 9.83601409 -6.71420567 7.79308933 -4.9375 5.75 C-4.46505859 5.19570313 -3.99261719 4.64140625 -3.50585938 4.0703125 C-2.34341033 2.708251 -1.17252145 1.35340044 0 0 Z " fill="currentColor" transform="translate(165,36)" />
      <path d="M0 0 C1.43527533 -0.00660315 2.870544 -0.01482983 4.30580139 -0.02458191 C7.29726969 -0.03785043 10.28766022 -0.02924998 13.27905273 -0.00512695 C17.08000222 0.02343938 20.87784729 -0.00661958 24.67851925 -0.05376148 C27.63787075 -0.08319631 30.59650106 -0.07915264 33.55594063 -0.06574059 C34.95554593 -0.06361278 36.35521305 -0.07185773 37.75468254 -0.09147072 C50.44387918 -0.2392699 58.64092379 3.58759378 67.78515625 12.26953125 C68.77128906 13.28853516 68.77128906 13.28853516 69.77734375 14.328125 C72.68994205 16.38188021 74.41001672 16.28294208 77.91015625 15.83203125 C80.58633185 14.71719462 80.58633185 14.71719462 83.03515625 13.08203125 C83.86273438 12.5715625 84.6903125 12.06109375 85.54296875 11.53515625 C87.92764965 9.81944524 89.89714785 7.96563462 91.91015625 5.83203125 C88.31651437 17.64462443 79.98348745 26.78121152 71.91015625 35.83203125 C71.32621094 36.48945312 70.74226563 37.146875 70.140625 37.82421875 C60.30733534 48.2300797 46.1970439 59.22662552 32.91015625 64.83203125 C30.09317296 64.53550669 27.80275946 63.79053703 25.16015625 62.76953125 C19.6392689 61.17696759 14.42877103 60.89222619 9.16015625 63.39453125 C5.48666414 65.01934507 4.64485273 64.92200933 0.91015625 63.83203125 C-20.30937658 53.77568037 -41.06098803 34.37150974 -52.77734375 14.20703125 C-53.12901611 13.60262207 -53.48068848 12.99821289 -53.84301758 12.37548828 C-54.66183091 10.89760946 -55.38544756 9.36774186 -56.08984375 7.83203125 C-55.75984375 7.17203125 -55.42984375 6.51203125 -55.08984375 5.83203125 C-54.36796875 6.57453125 -53.64609375 7.31703125 -52.90234375 8.08203125 C-51.97421875 8.98953125 -51.04609375 9.89703125 -50.08984375 10.83203125 C-48.97609375 11.94578125 -48.97609375 11.94578125 -47.83984375 13.08203125 C-43.92869344 15.57094509 -40.72853135 16.76420771 -36.08984375 15.83203125 C-33.42597575 13.91266917 -31.26758854 11.8263406 -29.03515625 9.421875 C-20.04729984 1.51875988 -11.72455332 -0.09232765 0 0 Z " fill="currentColor" transform="translate(82.08984375,-0.83203125)" />
      <path d="M0 0 C6.44539729 4.0590796 10.45684644 9.55217849 12.5234375 16.84790039 C13.00905099 19.0408732 13.20431877 21.0863755 13.31640625 23.328125 C13.35830078 24.12734375 13.40019531 24.9265625 13.44335938 25.75 C13.48267578 26.575 13.52199219 27.4 13.5625 28.25 C13.60568359 29.09046875 13.64886719 29.9309375 13.69335938 30.796875 C13.79908543 32.86440671 13.90001295 34.93218281 14 37 C14.75667969 37.29648438 15.51335937 37.59296875 16.29296875 37.8984375 C19.28156056 39.11457443 22.12856041 40.53089137 25 42 C20.58318826 46.55483711 20.58318826 46.55483711 18.16796875 48.3984375 C5.36912564 58.3446785 0.97732111 75.27209082 -4 90 C-4.66 90 -5.32 90 -6 90 C-6.17539307 89.46221924 -6.35078613 88.92443848 -6.53149414 88.37036133 C-15.21010797 61.82809408 -15.21010797 61.82809408 -35 43 C-31.46309903 39.87920503 -28.484542 38.3789035 -24 37 C-23.94392578 35.33324219 -23.94392578 35.33324219 -23.88671875 33.6328125 C-23.37253217 21.00683321 -22.73197122 11.06005338 -13 2 C-8.89830296 -1.47066673 -5.00452765 -1.79720606 0 0 Z " fill="currentColor" transform="translate(105,73)" />
      <path d="M0 0 C2 2 2 2 2.3125 5.8125 C2.1941184 9.65642034 1.56463991 12.0079201 -1 15 C-6.46314019 19.16923857 -13.43318383 18.65328791 -20 18 C-22.3984375 16.98046875 -22.3984375 16.98046875 -24 16 C-19.55382212 12.48010918 -14.6639643 9.64084758 -9.84375 6.671875 C-6.45265365 4.5714198 -3.13272631 2.480075 0 0 Z " fill="currentColor" transform="translate(144,59)" />
      <path d="M0 0 C0.63164063 0.4125 1.26328125 0.825 1.9140625 1.25 C9.45722218 6.11935956 17.17668708 10.60295551 25 15 C20.6019813 19.12451007 16.10473672 18.48071671 10.3671875 18.35546875 C5.92687262 17.88671161 4.13116411 17.13116411 1 14 C-1.81059853 10.4228746 -1.21045601 6.34942414 -1 2 C-0.67 1.34 -0.34 0.68 0 0 Z " fill="currentColor" transform="translate(55,59)" />
    </svg>