<svg width="20" height="19" viewBox="0 0 20 19" fill="none" xmlns="http://www.w3.org/2000/svg">
<g filter="url(#filter0_d_1233_1225)">
<path d="M6.83599 10.8378L11.836 5.83782C11.9232 5.75061 12.0267 5.68144 12.1407 5.63424C12.2546 5.58705 12.3767 5.56276 12.5001 5.56276C12.6234 5.56276 12.7455 5.58705 12.8594 5.63424C12.9734 5.68144 13.0769 5.75061 13.1641 5.83782C13.2513 5.92503 13.3205 6.02855 13.3677 6.14249C13.4149 6.25643 13.4392 6.37855 13.4392 6.50188C13.4392 6.62521 13.4149 6.74733 13.3677 6.86127C13.3205 6.97521 13.2513 7.07874 13.1641 7.16595L8.16412 12.1659C7.988 12.3421 7.74913 12.441 7.50005 12.441C7.25098 12.441 7.01211 12.3421 6.83599 12.1659C6.65987 11.9898 6.56093 11.751 6.56093 11.5019C6.56093 11.2528 6.65987 11.0139 6.83599 10.8378ZM17.0704 1.93157C16.1904 1.05361 14.9982 0.560547 13.7551 0.560547C12.5121 0.560547 11.3198 1.05361 10.4399 1.93157L8.08677 4.28235C7.91065 4.45847 7.81171 4.69734 7.81171 4.94641C7.81171 5.06974 7.836 5.19186 7.88319 5.3058C7.93039 5.41974 7.99957 5.52327 8.08677 5.61048C8.17398 5.69768 8.27751 5.76686 8.39145 5.81405C8.50539 5.86125 8.62751 5.88554 8.75083 5.88554C8.99991 5.88554 9.23878 5.7866 9.4149 5.61048L11.7641 3.26204C12.2916 2.7344 13.0072 2.43794 13.7533 2.43787C14.4994 2.43779 15.215 2.73412 15.7426 3.26165C16.2703 3.78918 16.5667 4.50471 16.5668 5.25083C16.5669 5.99694 16.2706 6.71253 15.743 7.24016L13.3907 9.58782C13.3035 9.67503 13.2343 9.77855 13.1871 9.89249C13.1399 10.0064 13.1156 10.1286 13.1156 10.2519C13.1156 10.3752 13.1399 10.4973 13.1871 10.6113C13.2343 10.7252 13.3035 10.8287 13.3907 10.9159C13.4779 11.0032 13.5814 11.0723 13.6954 11.1195C13.8093 11.1667 13.9314 11.191 14.0547 11.191C14.1781 11.191 14.3002 11.1667 14.4141 11.1195C14.5281 11.0723 14.6316 11.0032 14.7188 10.9159L17.0688 8.56751C17.9472 7.68703 18.4403 6.49395 18.4399 5.25023C18.4395 4.0065 17.9455 2.81378 17.0665 1.93391L17.0704 1.93157ZM10.5876 12.3909L8.23833 14.7409C7.97708 15.0022 7.66693 15.2093 7.3256 15.3507C6.98426 15.492 6.61844 15.5648 6.249 15.5647C5.87956 15.5647 5.51374 15.4919 5.17244 15.3505C4.83113 15.2091 4.52103 15.0018 4.25982 14.7406C3.73229 14.2129 3.43596 13.4973 3.43604 12.7512C3.43611 12.0051 3.73257 11.2896 4.26021 10.762L6.60865 8.41282C6.69585 8.32561 6.76503 8.22209 6.81222 8.10815C6.85942 7.99421 6.88371 7.87209 6.88371 7.74876C6.88371 7.62543 6.85942 7.50331 6.81222 7.38937C6.76503 7.27543 6.69585 7.1719 6.60865 7.0847C6.52144 6.99749 6.41791 6.92831 6.30397 6.88112C6.19003 6.83392 6.06791 6.80963 5.94458 6.80963C5.82126 6.80963 5.69914 6.83392 5.5852 6.88112C5.47126 6.92831 5.36773 6.99749 5.28052 7.0847L2.93365 9.43626C2.49828 9.87167 2.15295 10.3886 1.91735 10.9574C1.68175 11.5263 1.56051 12.136 1.56055 12.7518C1.56062 13.9953 2.05468 15.1879 2.93404 16.0671C3.8134 16.9464 5.00602 17.4403 6.24955 17.4402C7.49308 17.4401 8.68564 16.9461 9.5649 16.0667L11.9133 13.7175C12.0895 13.5414 12.1884 13.3025 12.1884 13.0534C12.1884 12.8044 12.0895 12.5655 11.9133 12.3894C11.7372 12.2133 11.4983 12.1143 11.2493 12.1143C11.0002 12.1143 10.7613 12.2133 10.5852 12.3894L10.5876 12.3909Z" fill="#808080"/>
<path d="M13.7551 1.06055C14.8036 1.06055 15.8116 1.45316 16.5826 2.15706L16.7127 2.2873C17.4981 3.07345 17.9395 4.13914 17.9399 5.2504C17.9403 6.36154 17.4998 7.42742 16.7151 8.2141C16.715 8.21419 16.7149 8.21428 16.7148 8.21437L14.3654 10.5623L14.3652 10.5624C14.3245 10.6032 14.2761 10.6355 14.2228 10.6576C14.1695 10.6796 14.1124 10.691 14.0547 10.691C13.9971 10.691 13.94 10.6796 13.8867 10.6576C13.8334 10.6355 13.785 10.6032 13.7442 10.5624C13.7035 10.5216 13.6711 10.4732 13.649 10.4199C13.627 10.3666 13.6156 10.3095 13.6156 10.2519C13.6156 10.1942 13.627 10.1371 13.649 10.0838C13.6711 10.0306 13.7035 9.98215 13.7442 9.94137L16.0962 7.59407L16.0966 7.59368C16.7179 6.97227 17.0669 6.1295 17.0668 5.25078C17.0667 4.37205 16.7176 3.52935 16.0962 2.90806C15.4747 2.28677 14.632 1.93778 13.7532 1.93787C12.8746 1.93795 12.0319 2.28707 11.4106 2.90843C11.4106 2.90846 11.4106 2.90849 11.4105 2.90852L9.0614 5.25686L9.06134 5.25692C8.97899 5.33927 8.8673 5.38554 8.75083 5.38554C8.69317 5.38554 8.63607 5.37418 8.58279 5.35211C8.52951 5.33004 8.4811 5.2977 8.44033 5.25692C8.39955 5.21615 8.3672 5.16774 8.34513 5.11446C8.32307 5.06118 8.31171 5.00408 8.31171 4.94641C8.31171 4.83003 8.35791 4.71842 8.44015 4.63608C8.44017 4.63606 8.44018 4.63605 8.4402 4.63603C8.44024 4.63599 8.44028 4.63595 8.44033 4.63591L10.7931 2.28552C10.7931 2.28546 10.7932 2.28539 10.7932 2.28533C10.7933 2.28532 10.7933 2.28531 10.7933 2.2853C11.5795 1.50101 12.6446 1.06055 13.7551 1.06055ZM10.9412 12.7444L10.9754 12.7102C11.0528 12.6484 11.1493 12.6143 11.2493 12.6143C11.3657 12.6143 11.4774 12.6606 11.5598 12.7429C11.6421 12.8253 11.6884 12.937 11.6884 13.0534C11.6884 13.1699 11.6421 13.2816 11.5598 13.364L11.5597 13.364L9.21132 15.7132C8.42583 16.4988 7.36044 16.9402 6.24952 16.9402C5.1386 16.9403 4.07316 16.499 3.28757 15.7135C2.50199 14.928 2.06061 13.8627 2.06055 12.7517C2.06051 12.2017 2.16883 11.657 2.3793 11.1488C2.58977 10.6406 2.89829 10.1788 3.28722 9.78979L3.28755 9.78946L5.63408 7.43825C5.63416 7.43817 5.63424 7.43808 5.63433 7.438C5.67505 7.39734 5.72337 7.36508 5.77654 7.34306C5.82982 7.32099 5.88692 7.30963 5.94458 7.30963C6.00225 7.30963 6.05935 7.32099 6.11263 7.34306C6.16591 7.36513 6.21432 7.39747 6.25509 7.43825C6.29587 7.47903 6.32822 7.52743 6.35028 7.58071C6.37235 7.63399 6.38371 7.69109 6.38371 7.74876C6.38371 7.80642 6.37235 7.86353 6.35028 7.9168C6.32822 7.97008 6.29587 8.01849 6.25509 8.05927L6.25503 8.05933L3.90669 10.4085C3.90667 10.4085 3.90665 10.4085 3.90663 10.4085C3.90662 10.4085 3.90661 10.4085 3.9066 10.4085C3.28524 11.0298 2.93612 11.8725 2.93604 12.7512C2.93595 13.6299 3.28494 14.4727 3.90623 15.0941C4.21386 15.4018 4.57909 15.6459 4.98105 15.8124C5.38302 15.9789 5.81385 16.0647 6.24895 16.0647C6.68405 16.0648 7.11489 15.9791 7.51689 15.8126C7.91889 15.6462 8.28416 15.4022 8.59185 15.0945L8.59195 15.0944L10.9412 12.7444ZM7.18954 11.1914L12.1895 6.19137C12.2303 6.1506 12.2787 6.11825 12.332 6.09618C12.3853 6.07411 12.4424 6.06276 12.5001 6.06276C12.5577 6.06276 12.6148 6.07411 12.6681 6.09618C12.7214 6.11825 12.7698 6.1506 12.8106 6.19137C12.8513 6.23215 12.8837 6.28056 12.9058 6.33384C12.9278 6.38711 12.9392 6.44422 12.9392 6.50188C12.9392 6.55955 12.9278 6.61665 12.9058 6.66993C12.8837 6.72321 12.8513 6.77161 12.8106 6.81239L7.81056 11.8124C7.72821 11.8947 7.61652 11.941 7.50005 11.941C7.38359 11.941 7.2719 11.8947 7.18954 11.8124C7.10719 11.73 7.06093 11.6183 7.06093 11.5019C7.06093 11.3854 7.10719 11.2737 7.18954 11.1914Z" stroke="black"/>
</g>
<defs>
<filter id="filter0_d_1233_1225" x="-2.43945" y="0.560547" width="24.8789" height="24.8796" filterUnits="userSpaceOnUse" color-interpolation-filters="sRGB">
<feFlood flood-opacity="0" result="BackgroundImageFix"/>
<feColorMatrix in="SourceAlpha" type="matrix" values="0 0 0 0 0 0 0 0 0 0 0 0 0 0 0 0 0 0 127 0" result="hardAlpha"/>
<feOffset dy="4"/>
<feGaussianBlur stdDeviation="2"/>
<feComposite in2="hardAlpha" operator="out"/>
<feColorMatrix type="matrix" values="0 0 0 0 0 0 0 0 0 0 0 0 0 0 0 0 0 0 0.25 0"/>
<feBlend mode="normal" in2="BackgroundImageFix" result="effect1_dropShadow_1233_1225"/>
<feBlend mode="normal" in="SourceGraphic" in2="effect1_dropShadow_1233_1225" result="shape"/>
</filter>
</defs>
</svg>
