<svg width="19" height="17" viewBox="0 0 19 17" fill="none" xmlns="http://www.w3.org/2000/svg">
<path d="M17.8808 1.04619C17.7839 0.962576 17.6661 0.906964 17.54 0.88535C17.4139 0.863736 17.2843 0.87694 17.1652 0.923538L1.33234 7.11963C1.10795 7.20689 0.917982 7.36467 0.79103 7.56923C0.664077 7.7738 0.607013 8.01406 0.628428 8.25386C0.649844 8.49366 0.74858 8.72002 0.909771 8.89885C1.07096 9.07767 1.28589 9.1993 1.52218 9.24541L5.62453 10.0509V14.6251C5.62372 14.8743 5.69776 15.1179 5.83706 15.3245C5.97636 15.5311 6.17449 15.691 6.40578 15.7837C6.63671 15.878 6.89067 15.9006 7.13464 15.8487C7.37861 15.7967 7.60129 15.6725 7.77374 15.4923L9.75187 13.4407L12.8902 16.1876C13.1166 16.3884 13.4086 16.4996 13.7112 16.5001C13.8439 16.5 13.9757 16.4792 14.1019 16.4384C14.3081 16.373 14.4935 16.2546 14.6398 16.0952C14.7861 15.9358 14.888 15.7409 14.9355 15.5298L18.1066 1.73448C18.1349 1.61006 18.1289 1.48027 18.0891 1.35902C18.0493 1.23777 17.9773 1.12963 17.8808 1.04619ZM13.7128 15.2501L7.25343 9.58604L16.5503 2.92276L13.7128 15.2501Z" fill="white"/>
</svg>
