<svg width="60" height="49" viewBox="0 0 60 49" fill="none" xmlns="http://www.w3.org/2000/svg">
<path d="M18.3937 3.1582C18.3937 3.1582 18.7093 7.54426 19.6397 8.47118C20.5702 9.3981 24.9729 9.71253 24.9729 9.71253C24.9729 9.71253 20.5702 10.027 19.6397 10.9539C18.7093 11.8808 18.3937 16.2669 18.3937 16.2669C18.3937 16.2669 18.078 11.8808 17.1476 10.9539C16.2171 10.027 11.8643 9.71253 11.8643 9.71253C11.8643 9.71253 16.2171 9.3981 17.1476 8.47118C18.078 7.54426 18.3937 3.1582 18.3937 3.1582Z" fill="#BEDAFF"/>
<path d="M29.4875 0C29.4875 0 30.4828 13.8305 33.4167 16.7533C36.3507 19.6762 50.2338 20.6677 50.2338 20.6677C50.2338 20.6677 37.6023 20.4123 33.4167 24.582C29.2312 28.7517 30.2051 49.3249 29.4875 48.703C28.7699 48.081 30.2359 28.6094 25.5583 24.582C20.8807 20.5546 8.89844 20.6677 8.89844 20.6677C8.89844 20.6677 22.6243 19.6762 25.5583 16.7533C28.4923 13.8305 29.4875 0 29.4875 0Z" fill="url(#paint0_linear_842_2456)"/>
<g filter="url(#filter0_f_842_2456)">
<path d="M28.8965 39.8047H30.3317L30.3089 41.1443H28.932L28.8965 39.8047Z" fill="#000E22"/>
</g>
<path d="M58.4627 34.8623C58.4627 34.916 58.4313 35.0805 58.1064 35.3477C57.789 35.6087 57.2804 35.8906 56.5614 36.1766C55.1299 36.7462 53.0188 37.2728 50.3616 37.72C45.0579 38.6125 37.7053 39.168 29.5662 39.168C21.4272 39.168 14.0745 38.6125 8.7709 37.72C6.11369 37.2728 4.00256 36.7462 2.57107 36.1766C1.85207 35.8906 1.34344 35.6087 1.02612 35.3477C0.701188 35.0805 0.669785 34.916 0.669785 34.8623C0.669785 34.8085 0.701188 34.6441 1.02612 34.3768C1.34344 34.1159 1.85207 33.834 2.57107 33.5479C4.00256 32.9783 6.11369 32.4517 8.7709 32.0045C14.0745 31.112 21.4272 30.5565 29.5662 30.5565C37.7053 30.5565 45.0579 31.112 50.3616 32.0045C53.0188 32.4517 55.1299 32.9783 56.5614 33.5479C57.2804 33.834 57.789 34.1159 58.1064 34.3768C58.4313 34.6441 58.4627 34.8085 58.4627 34.8623Z" stroke="#BEDAFF" stroke-width="1.33957"/>
<defs>
<filter id="filter0_f_842_2456" x="28.5137" y="39.422" width="2.20102" height="2.10531" filterUnits="userSpaceOnUse" color-interpolation-filters="sRGB">
<feFlood flood-opacity="0" result="BackgroundImageFix"/>
<feBlend mode="normal" in="SourceGraphic" in2="BackgroundImageFix" result="shape"/>
<feGaussianBlur stdDeviation="0.191367" result="effect1_foregroundBlur_842_2456"/>
</filter>
<linearGradient id="paint0_linear_842_2456" x1="29.5661" y1="38.1299" x2="29.5661" y2="47.9375" gradientUnits="userSpaceOnUse">
<stop stop-color="#BEDAFF"/>
<stop offset="1" stop-color="#000E22"/>
</linearGradient>
</defs>
</svg>
