<svg width="16" height="16" viewBox="0 0 16 16" fill="none" xmlns="http://www.w3.org/2000/svg">
<path d="M15.0404 14.3719L10.2747 6.8875L14.9404 1.75547C15.1041 1.57093 15.1885 1.32929 15.1752 1.08296C15.162 0.836618 15.0521 0.605432 14.8696 0.439519C14.687 0.273605 14.4464 0.186338 14.1999 0.196636C13.9534 0.206934 13.721 0.313967 13.5529 0.494531L9.2349 5.24766L6.29037 0.621875C6.20575 0.488825 6.08894 0.379268 5.95074 0.303342C5.81254 0.227416 5.65743 0.187573 5.49975 0.1875H1.74975C1.58181 0.187577 1.41697 0.232765 1.27247 0.318338C1.12797 0.403912 1.00911 0.52673 0.928313 0.673954C0.847515 0.821179 0.807748 0.987404 0.813168 1.15525C0.818587 1.32311 0.868995 1.48642 0.959122 1.62812L5.72475 9.1125L1.056 14.2445C0.971466 14.3353 0.905798 14.442 0.862799 14.5584C0.8198 14.6748 0.800326 14.7985 0.805505 14.9225C0.810684 15.0464 0.840413 15.1681 0.892969 15.2805C0.945525 15.3929 1.01986 15.4937 1.11167 15.5771C1.20348 15.6606 1.31094 15.7249 1.42782 15.7665C1.5447 15.8081 1.66867 15.8261 1.79255 15.8195C1.91643 15.8128 2.03776 15.7816 2.1495 15.7277C2.26124 15.6738 2.36117 15.5983 2.4435 15.5055L6.76459 10.7523L9.70912 15.3781C9.79374 15.5112 9.91056 15.6207 10.0488 15.6967C10.187 15.7726 10.3421 15.8124 10.4997 15.8125H14.2497C14.4177 15.8124 14.5825 15.7672 14.727 15.6817C14.8715 15.5961 14.9904 15.4733 15.0712 15.326C15.152 15.1788 15.1917 15.0126 15.1863 14.8447C15.1809 14.6769 15.1305 14.5136 15.0404 14.3719ZM11.0146 13.9375L3.45756 2.0625H4.9849L12.5419 13.9375H11.0146Z" fill="white"/>
</svg>
